<svg xmlns="http://www.w3.org/2000/svg" width="1080" height="520" viewBox="0 0 1080 520">
<rect width="100%" height="100%" fill="#fbfcfe"/>
<defs>
<marker id="arrow-screen" markerWidth="12" markerHeight="12" refX="10" refY="6" orient="auto">
<path d="M0,0 L12,6 L0,12 z" fill="#43516d"/>
</marker>
</defs>
<g style="color:#172033">
<line x1="270" y1="122.0" x2="420" y2="122.0" stroke="#43516d" stroke-width="4" marker-end="url(#arrow-screen)"/>
<text x="345.0" y="108.0" fill="currentColor" font-family="Helvetica, Arial, sans-serif" font-size="20" font-weight="500" text-anchor="middle">derive review plan</text>
<line x1="600" y1="122.0" x2="780" y2="217.0" stroke="#43516d" stroke-width="4" marker-end="url(#arrow-screen)"/>
<text x="690.0" y="155.5" fill="currentColor" font-family="Helvetica, Arial, sans-serif" font-size="20" font-weight="500" text-anchor="middle">human approval</text>
<line x1="270" y1="122.0" x2="420" y2="312.0" stroke="#43516d" stroke-width="4" marker-end="url(#arrow-screen)"/>
<text x="345.0" y="203.0" fill="currentColor" font-family="Helvetica, Arial, sans-serif" font-size="20" font-weight="500" text-anchor="middle">policy check</text>
<line x1="600" y1="312.0" x2="420" y2="122.0" stroke="#43516d" stroke-width="4" marker-end="url(#arrow-screen)"/>
<text x="510.0" y="203.0" fill="currentColor" font-family="Helvetica, Arial, sans-serif" font-size="20" font-weight="500" text-anchor="middle">satisfied</text>
<path d="M 270 122.0 Q 525.0 262.0 780 217.0" fill="none" stroke="#43516d" stroke-width="4" marker-end="url(#arrow-screen)"/>
<text x="525.0" y="182.0" fill="currentColor" font-family="Helvetica, Arial, sans-serif" font-size="20" font-weight="500" text-anchor="middle">policy-gated approval path</text>
<rect x="80" y="90" width="190" height="64" rx="18" ry="18" fill="#edf4ff" stroke="#5f7db4" stroke-width="3"/>
<text x="175.0" y="129.0" fill="currentColor" font-family="Helvetica, Arial, sans-serif" font-size="22" font-weight="600" text-anchor="middle">Change Request</text>
<rect x="420" y="90" width="180" height="64" rx="18" ry="18" fill="#edf4ff" stroke="#5f7db4" stroke-width="3"/>
<text x="510.0" y="129.0" fill="currentColor" font-family="Helvetica, Arial, sans-serif" font-size="22" font-weight="600" text-anchor="middle">Review Plan</text>
<rect x="420" y="280" width="180" height="64" rx="18" ry="18" fill="#dde8ff" stroke="#2f5cb4" stroke-width="3"/>
<text x="510.0" y="319.0" fill="currentColor" font-family="Helvetica, Arial, sans-serif" font-size="22" font-weight="600" text-anchor="middle">Policy Check</text>
<rect x="780" y="185" width="210" height="64" rx="18" ry="18" fill="#dde8ff" stroke="#2f5cb4" stroke-width="3"/>
<text x="885.0" y="224.0" fill="currentColor" font-family="Helvetica, Arial, sans-serif" font-size="22" font-weight="600" text-anchor="middle">Approved Change</text>
</g></svg>