<svg xmlns="http://www.w3.org/2000/svg" width="1320" height="360" viewBox="0 0 1320 360">
<rect width="100%" height="100%" fill="#ffffff"/>
<defs>
<marker id="arrow-print" markerWidth="12" markerHeight="12" refX="10" refY="6" orient="auto">
<path d="M0,0 L12,6 L0,12 z" fill="#333333"/>
</marker>
</defs>
<g style="color:#111111">
<line x1="230" y1="172.0" x2="250" y2="172.0" stroke="#333333" stroke-width="4" marker-end="url(#arrow-print)"/>
<text x="240.0" y="158.0" fill="currentColor" font-family="Helvetica, Arial, sans-serif" font-size="20" font-weight="500" text-anchor="middle">fix scope</text>
<line x1="440" y1="172.0" x2="460" y2="172.0" stroke="#333333" stroke-width="4" marker-end="url(#arrow-print)"/>
<text x="450.0" y="158.0" fill="currentColor" font-family="Helvetica, Arial, sans-serif" font-size="20" font-weight="500" text-anchor="middle">realize design</text>
<line x1="670" y1="172.0" x2="700" y2="172.0" stroke="#333333" stroke-width="4" marker-end="url(#arrow-print)"/>
<text x="685.0" y="158.0" fill="currentColor" font-family="Helvetica, Arial, sans-serif" font-size="20" font-weight="500" text-anchor="middle">assemble review</text>
<line x1="900" y1="172.0" x2="920" y2="172.0" stroke="#333333" stroke-width="4" marker-end="url(#arrow-print)"/>
<text x="910.0" y="158.0" fill="currentColor" font-family="Helvetica, Arial, sans-serif" font-size="20" font-weight="500" text-anchor="middle">approve or return</text>
<line x1="1130" y1="172.0" x2="1140" y2="102.0" stroke="#333333" stroke-width="4" marker-end="url(#arrow-print)"/>
<text x="1135.0" y="123.0" fill="currentColor" font-family="Helvetica, Arial, sans-serif" font-size="20" font-weight="500" text-anchor="middle">dispatch and observe</text>
<line x1="1310" y1="102.0" x2="1140" y2="252.0" stroke="#333333" stroke-width="4" marker-end="url(#arrow-print)"/>
<text x="1225.0" y="163.0" fill="currentColor" font-family="Helvetica, Arial, sans-serif" font-size="20" font-weight="500" text-anchor="middle">assemble evidence</text>
<line x1="1130" y1="172.0" x2="1140" y2="252.0" stroke="#333333" stroke-width="4" marker-end="url(#arrow-print)"/>
<text x="1135.0" y="198.0" fill="currentColor" font-family="Helvetica, Arial, sans-serif" font-size="20" font-weight="500" text-anchor="middle">record approved outcome</text>
<rect x="40" y="140" width="190" height="64" rx="18" ry="18" fill="#f0f0f0" stroke="#3f3f3f" stroke-width="3"/>
<text x="135.0" y="179.0" fill="currentColor" font-family="Helvetica, Arial, sans-serif" font-size="22" font-weight="600" text-anchor="middle">Problem Statement</text>
<rect x="250" y="140" width="190" height="64" rx="18" ry="18" fill="#f0f0f0" stroke="#3f3f3f" stroke-width="3"/>
<text x="345.0" y="179.0" fill="currentColor" font-family="Helvetica, Arial, sans-serif" font-size="22" font-weight="600" text-anchor="middle">Acceptance Criteria</text>
<rect x="460" y="140" width="210" height="64" rx="18" ry="18" fill="#f0f0f0" stroke="#3f3f3f" stroke-width="3"/>
<text x="565.0" y="179.0" fill="currentColor" font-family="Helvetica, Arial, sans-serif" font-size="22" font-weight="600" text-anchor="middle">Design Artifact Set</text>
<rect x="700" y="140" width="200" height="64" rx="18" ry="18" fill="#d9d9d9" stroke="#111111" stroke-width="3"/>
<text x="800.0" y="179.0" fill="currentColor" font-family="Helvetica, Arial, sans-serif" font-size="22" font-weight="600" text-anchor="middle">Decision Packet</text>
<rect x="920" y="140" width="210" height="64" rx="18" ry="18" fill="#d9d9d9" stroke="#111111" stroke-width="3"/>
<text x="1025.0" y="179.0" fill="currentColor" font-family="Helvetica, Arial, sans-serif" font-size="22" font-weight="600" text-anchor="middle">Approved Change</text>
<rect x="1140" y="70" width="170" height="64" rx="18" ry="18" fill="#fafafa" stroke="#5a5a5a" stroke-width="3"/>
<text x="1225.0" y="109.0" fill="currentColor" font-family="Helvetica, Arial, sans-serif" font-size="22" font-weight="600" text-anchor="middle">Execution Trace</text>
<rect x="1140" y="220" width="180" height="64" rx="18" ry="18" fill="#fafafa" stroke="#5a5a5a" stroke-width="3"/>
<text x="1230.0" y="259.0" fill="currentColor" font-family="Helvetica, Arial, sans-serif" font-size="22" font-weight="600" text-anchor="middle">Acceptance Evidence</text>
</g></svg>