<svg xmlns="http://www.w3.org/2000/svg" width="1320" height="640" viewBox="0 0 1320 640">
<rect width="100%" height="100%" fill="#ffffff"/>
<defs>
<marker id="arrow-print" markerWidth="12" markerHeight="12" refX="10" refY="6" orient="auto">
<path d="M0,0 L12,6 L0,12 z" fill="#333333"/>
</marker>
</defs>
<g style="color:#111111">
<rect x="60" y="80" width="520" height="460" rx="20" ry="20" fill="#ffffff" fill-opacity="0.55" stroke="#6b6b6b" stroke-width="3" stroke-dasharray="12 8"/>
<text x="320.0" y="68" fill="currentColor" font-family="Helvetica, Arial, sans-serif" font-size="24" font-weight="600" text-anchor="middle">Design view</text>
<rect x="740" y="80" width="520" height="460" rx="20" ry="20" fill="#ffffff" fill-opacity="0.55" stroke="#6b6b6b" stroke-width="3" stroke-dasharray="12 8"/>
<text x="1000.0" y="68" fill="currentColor" font-family="Helvetica, Arial, sans-serif" font-size="24" font-weight="600" text-anchor="middle">Runtime view</text>
<line x1="300" y1="162.0" x2="350" y2="162.0" stroke="#333333" stroke-width="4" marker-end="url(#arrow-print)"/>
<text x="325.0" y="148.0" fill="currentColor" font-family="Helvetica, Arial, sans-serif" font-size="20" font-weight="500" text-anchor="middle">policy check</text>
<line x1="530" y1="162.0" x2="350" y2="312.0" stroke="#333333" stroke-width="4" marker-end="url(#arrow-print)"/>
<text x="440.0" y="223.0" fill="currentColor" font-family="Helvetica, Arial, sans-serif" font-size="20" font-weight="500" text-anchor="middle">satisfied</text>
<line x1="530" y1="312.0" x2="350" y2="462.0" stroke="#333333" stroke-width="4" marker-end="url(#arrow-print)"/>
<text x="440.0" y="373.0" fill="currentColor" font-family="Helvetica, Arial, sans-serif" font-size="20" font-weight="500" text-anchor="middle">human approval</text>
<line x1="980" y1="162.0" x2="1030" y2="162.0" stroke="#333333" stroke-width="4" marker-end="url(#arrow-print)"/>
<text x="1005.0" y="148.0" fill="currentColor" font-family="Helvetica, Arial, sans-serif" font-size="20" font-weight="500" text-anchor="middle">classify request</text>
<line x1="1220" y1="162.0" x2="1030" y2="312.0" stroke="#333333" stroke-width="4" marker-end="url(#arrow-print)"/>
<text x="1125.0" y="223.0" fill="currentColor" font-family="Helvetica, Arial, sans-serif" font-size="20" font-weight="500" text-anchor="middle">evaluate policy</text>
<line x1="1250" y1="312.0" x2="1030" y2="462.0" stroke="#333333" stroke-width="4" marker-end="url(#arrow-print)"/>
<text x="1140.0" y="373.0" fill="currentColor" font-family="Helvetica, Arial, sans-serif" font-size="20" font-weight="500" text-anchor="middle">request approval</text>
<line x1="300" y1="162.0" x2="790" y2="162.0" stroke="#333333" stroke-width="4" marker-end="url(#arrow-print)"/>
<text x="545.0" y="148.0" fill="currentColor" font-family="Helvetica, Arial, sans-serif" font-size="20" font-weight="500" text-anchor="middle">translate</text>
<line x1="530" y1="312.0" x2="1030" y2="162.0" stroke="#333333" stroke-width="4" marker-end="url(#arrow-print)"/>
<text x="780.0" y="223.0" fill="currentColor" font-family="Helvetica, Arial, sans-serif" font-size="20" font-weight="500" text-anchor="middle">translate</text>
<line x1="530" y1="162.0" x2="1030" y2="312.0" stroke="#333333" stroke-width="4" marker-end="url(#arrow-print)"/>
<text x="780.0" y="223.0" fill="currentColor" font-family="Helvetica, Arial, sans-serif" font-size="20" font-weight="500" text-anchor="middle">translate</text>
<line x1="560" y1="462.0" x2="1030" y2="462.0" stroke="#333333" stroke-width="4" marker-end="url(#arrow-print)"/>
<text x="795.0" y="448.0" fill="currentColor" font-family="Helvetica, Arial, sans-serif" font-size="20" font-weight="500" text-anchor="middle">translate</text>
<rect x="110" y="130" width="190" height="64" rx="18" ry="18" fill="#f0f0f0" stroke="#3f3f3f" stroke-width="3"/>
<text x="205.0" y="169.0" fill="currentColor" font-family="Helvetica, Arial, sans-serif" font-size="22" font-weight="600" text-anchor="middle">Change Request</text>
<rect x="350" y="130" width="180" height="64" rx="18" ry="18" fill="#d9d9d9" stroke="#111111" stroke-width="3"/>
<text x="440.0" y="169.0" fill="currentColor" font-family="Helvetica, Arial, sans-serif" font-size="22" font-weight="600" text-anchor="middle">Policy Check</text>
<rect x="350" y="280" width="180" height="64" rx="18" ry="18" fill="#f0f0f0" stroke="#3f3f3f" stroke-width="3"/>
<text x="440.0" y="319.0" fill="currentColor" font-family="Helvetica, Arial, sans-serif" font-size="22" font-weight="600" text-anchor="middle">Review Plan</text>
<rect x="350" y="430" width="210" height="64" rx="18" ry="18" fill="#d9d9d9" stroke="#111111" stroke-width="3"/>
<text x="455.0" y="469.0" fill="currentColor" font-family="Helvetica, Arial, sans-serif" font-size="22" font-weight="600" text-anchor="middle">Approved Change</text>
<rect x="790" y="130" width="190" height="64" rx="18" ry="18" fill="#f0f0f0" stroke="#3f3f3f" stroke-width="3"/>
<text x="885.0" y="169.0" fill="currentColor" font-family="Helvetica, Arial, sans-serif" font-size="22" font-weight="600" text-anchor="middle">Pending Request</text>
<rect x="1030" y="130" width="190" height="64" rx="18" ry="18" fill="#f0f0f0" stroke="#3f3f3f" stroke-width="3"/>
<text x="1125.0" y="169.0" fill="currentColor" font-family="Helvetica, Arial, sans-serif" font-size="22" font-weight="600" text-anchor="middle">Planned Review</text>
<rect x="1030" y="280" width="220" height="64" rx="18" ry="18" fill="#d9d9d9" stroke="#111111" stroke-width="3"/>
<text x="1140.0" y="319.0" fill="currentColor" font-family="Helvetica, Arial, sans-serif" font-size="22" font-weight="600" text-anchor="middle">Policy-Evaluated Plan</text>
<rect x="1030" y="430" width="220" height="64" rx="18" ry="18" fill="#d9d9d9" stroke="#111111" stroke-width="3"/>
<text x="1140.0" y="469.0" fill="currentColor" font-family="Helvetica, Arial, sans-serif" font-size="22" font-weight="600" text-anchor="middle">Execution-Ready Change</text>
</g></svg>