<svg xmlns="http://www.w3.org/2000/svg" width="1180" height="600" viewBox="0 0 1180 600">
<rect width="100%" height="100%" fill="#fbfcfe"/>
<defs>
<marker id="arrow-screen" markerWidth="12" markerHeight="12" refX="10" refY="6" orient="auto">
<path d="M0,0 L12,6 L0,12 z" fill="#43516d"/>
</marker>
</defs>
<g style="color:#172033">
<rect x="420" y="80" width="680" height="420" rx="20" ry="20" fill="#fff3dc" fill-opacity="0.55" stroke="#b8872f" stroke-width="3"/>
<text x="760.0" y="68" fill="currentColor" font-family="Helvetica, Arial, sans-serif" font-size="24" font-weight="600" text-anchor="middle">Effect boundary</text>
<line x1="260" y1="152.0" x2="520" y2="142.0" stroke="#43516d" stroke-width="4" marker-end="url(#arrow-screen)"/>
<text x="390.0" y="133.0" fill="currentColor" font-family="Helvetica, Arial, sans-serif" font-size="20" font-weight="500" text-anchor="middle">prepare bounded inputs</text>
<line x1="270" y1="352.0" x2="760" y2="142.0" stroke="#43516d" stroke-width="4" marker-end="url(#arrow-screen)"/>
<text x="515.0" y="233.0" fill="currentColor" font-family="Helvetica, Arial, sans-serif" font-size="20" font-weight="500" text-anchor="middle">record approved outcome</text>
<line x1="940" y1="142.0" x2="760" y2="322.0" stroke="#43516d" stroke-width="4" marker-end="url(#arrow-screen)"/>
<text x="850.0" y="218.0" fill="currentColor" font-family="Helvetica, Arial, sans-serif" font-size="20" font-weight="500" text-anchor="middle">authorize dispatch</text>
<line x1="760" y1="322.0" x2="700" y2="432.0" stroke="#43516d" stroke-width="4" marker-end="url(#arrow-screen)"/>
<text x="730.0" y="363.0" fill="currentColor" font-family="Helvetica, Arial, sans-serif" font-size="20" font-weight="500" text-anchor="middle">emit trace</text>
<line x1="940" y1="142.0" x2="840" y2="432.0" stroke="#43516d" stroke-width="4" marker-end="url(#arrow-screen)"/>
<text x="890.0" y="273.0" fill="currentColor" font-family="Helvetica, Arial, sans-serif" font-size="20" font-weight="500" text-anchor="middle">emit decision evidence</text>
<line x1="700" y1="432.0" x2="840" y2="432.0" stroke="#43516d" stroke-width="4" marker-end="url(#arrow-screen)"/>
<text x="770.0" y="418.0" fill="currentColor" font-family="Helvetica, Arial, sans-serif" font-size="20" font-weight="500" text-anchor="middle">assemble acceptance claim</text>
<rect x="70" y="120" width="190" height="64" rx="18" ry="18" fill="#edf4ff" stroke="#5f7db4" stroke-width="3"/>
<text x="165.0" y="159.0" fill="currentColor" font-family="Helvetica, Arial, sans-serif" font-size="22" font-weight="600" text-anchor="middle">Review Plan</text>
<rect x="70" y="320" width="200" height="64" rx="18" ry="18" fill="#dde8ff" stroke="#2f5cb4" stroke-width="3"/>
<text x="170.0" y="359.0" fill="currentColor" font-family="Helvetica, Arial, sans-serif" font-size="22" font-weight="600" text-anchor="middle">Decision Packet</text>
<rect x="520" y="110" width="160" height="64" rx="18" ry="18" fill="#fff3dc" stroke="#b8872f" stroke-width="3"/>
<text x="600.0" y="149.0" fill="currentColor" font-family="Helvetica, Arial, sans-serif" font-size="22" font-weight="600" text-anchor="middle">Tool Call</text>
<rect x="760" y="110" width="180" height="64" rx="18" ry="18" fill="#dde8ff" stroke="#2f5cb4" stroke-width="3"/>
<text x="850.0" y="149.0" fill="currentColor" font-family="Helvetica, Arial, sans-serif" font-size="22" font-weight="600" text-anchor="middle">Approval Write</text>
<rect x="760" y="290" width="200" height="64" rx="18" ry="18" fill="#fff3dc" stroke="#b8872f" stroke-width="3"/>
<text x="860.0" y="329.0" fill="currentColor" font-family="Helvetica, Arial, sans-serif" font-size="22" font-weight="600" text-anchor="middle">Execution Dispatch</text>
<rect x="520" y="400" width="180" height="64" rx="18" ry="18" fill="#edf8f1" stroke="#4e8a64" stroke-width="3"/>
<text x="610.0" y="439.0" fill="currentColor" font-family="Helvetica, Arial, sans-serif" font-size="22" font-weight="600" text-anchor="middle">Execution Trace</text>
<rect x="840" y="400" width="220" height="64" rx="18" ry="18" fill="#edf8f1" stroke="#4e8a64" stroke-width="3"/>
<text x="950.0" y="439.0" fill="currentColor" font-family="Helvetica, Arial, sans-serif" font-size="22" font-weight="600" text-anchor="middle">Acceptance Evidence</text>
</g></svg>