<svg xmlns="http://www.w3.org/2000/svg" width="1260" height="360" viewBox="0 0 1260 360">
<rect width="100%" height="100%" fill="#fbfcfe"/>
<defs>
<marker id="arrow-screen" markerWidth="12" markerHeight="12" refX="10" refY="6" orient="auto">
<path d="M0,0 L12,6 L0,12 z" fill="#43516d"/>
</marker>
</defs>
<g style="color:#172033">
<line x1="250" y1="172.0" x2="300" y2="172.0" stroke="#43516d" stroke-width="4" marker-end="url(#arrow-screen)"/>
<text x="275.0" y="158.0" fill="currentColor" font-family="Helvetica, Arial, sans-serif" font-size="20" font-weight="500" text-anchor="middle">draft bounded proposal</text>
<line x1="480" y1="172.0" x2="540" y2="172.0" stroke="#43516d" stroke-width="4" marker-end="url(#arrow-screen)"/>
<text x="510.0" y="158.0" fill="currentColor" font-family="Helvetica, Arial, sans-serif" font-size="20" font-weight="500" text-anchor="middle">synchronize evidence</text>
<line x1="750" y1="172.0" x2="800" y2="92.0" stroke="#43516d" stroke-width="4" marker-end="url(#arrow-screen)"/>
<text x="775.0" y="118.0" fill="currentColor" font-family="Helvetica, Arial, sans-serif" font-size="20" font-weight="500" text-anchor="middle">human approval</text>
<line x1="1010" y1="92.0" x2="800" y2="252.0" stroke="#43516d" stroke-width="4" marker-end="url(#arrow-screen)"/>
<text x="905.0" y="158.0" fill="currentColor" font-family="Helvetica, Arial, sans-serif" font-size="20" font-weight="500" text-anchor="middle">dispatch governed execution</text>
<line x1="1040" y1="252.0" x2="1080" y2="172.0" stroke="#43516d" stroke-width="4" marker-end="url(#arrow-screen)"/>
<text x="1060.0" y="198.0" fill="currentColor" font-family="Helvetica, Arial, sans-serif" font-size="20" font-weight="500" text-anchor="middle">emit trace and evidence</text>
<rect x="60" y="140" width="190" height="64" rx="18" ry="18" fill="#edf4ff" stroke="#5f7db4" stroke-width="3"/>
<text x="155.0" y="179.0" fill="currentColor" font-family="Helvetica, Arial, sans-serif" font-size="22" font-weight="600" text-anchor="middle">Change Request</text>
<rect x="300" y="140" width="180" height="64" rx="18" ry="18" fill="#edf4ff" stroke="#5f7db4" stroke-width="3"/>
<text x="390.0" y="179.0" fill="currentColor" font-family="Helvetica, Arial, sans-serif" font-size="22" font-weight="600" text-anchor="middle">Review Plan</text>
<rect x="540" y="140" width="210" height="64" rx="18" ry="18" fill="#dde8ff" stroke="#2f5cb4" stroke-width="3"/>
<text x="645.0" y="179.0" fill="currentColor" font-family="Helvetica, Arial, sans-serif" font-size="22" font-weight="600" text-anchor="middle">Decision Packet</text>
<rect x="800" y="60" width="210" height="64" rx="18" ry="18" fill="#dde8ff" stroke="#2f5cb4" stroke-width="3"/>
<text x="905.0" y="99.0" fill="currentColor" font-family="Helvetica, Arial, sans-serif" font-size="22" font-weight="600" text-anchor="middle">Approved Change</text>
<rect x="800" y="220" width="240" height="64" rx="18" ry="18" fill="#dde8ff" stroke="#2f5cb4" stroke-width="3"/>
<text x="920.0" y="259.0" fill="currentColor" font-family="Helvetica, Arial, sans-serif" font-size="22" font-weight="600" text-anchor="middle">Execution-Ready Change</text>
<rect x="1080" y="140" width="190" height="64" rx="18" ry="18" fill="#edf8f1" stroke="#4e8a64" stroke-width="3"/>
<text x="1175.0" y="179.0" fill="currentColor" font-family="Helvetica, Arial, sans-serif" font-size="22" font-weight="600" text-anchor="middle">Acceptance Evidence</text>
</g></svg>