<svg xmlns="http://www.w3.org/2000/svg" width="1160" height="560" viewBox="0 0 1160 560">
<rect width="100%" height="100%" fill="#fbfcfe"/>
<defs>
<marker id="arrow-screen" markerWidth="12" markerHeight="12" refX="10" refY="6" orient="auto">
<path d="M0,0 L12,6 L0,12 z" fill="#43516d"/>
</marker>
</defs>
<g style="color:#172033">
<line x1="260" y1="252.0" x2="420" y2="142.0" stroke="#43516d" stroke-width="4" marker-end="url(#arrow-screen)"/>
<text x="340.0" y="183.0" fill="currentColor" font-family="Helvetica, Arial, sans-serif" font-size="20" font-weight="500" text-anchor="middle">evaluate policy</text>
<line x1="260" y1="252.0" x2="420" y2="352.0" stroke="#43516d" stroke-width="4" marker-end="url(#arrow-screen)"/>
<text x="340.0" y="288.0" fill="currentColor" font-family="Helvetica, Arial, sans-serif" font-size="20" font-weight="500" text-anchor="middle">collect evidence links</text>
<line x1="670" y1="142.0" x2="800" y2="252.0" stroke="#43516d" stroke-width="4" marker-end="url(#arrow-screen)"/>
<text x="735.0" y="183.0" fill="currentColor" font-family="Helvetica, Arial, sans-serif" font-size="20" font-weight="500" text-anchor="middle">synchronize for review</text>
<line x1="640" y1="352.0" x2="800" y2="252.0" stroke="#43516d" stroke-width="4" marker-end="url(#arrow-screen)"/>
<text x="720.0" y="288.0" fill="currentColor" font-family="Helvetica, Arial, sans-serif" font-size="20" font-weight="500" text-anchor="middle">synchronize for review</text>
<line x1="1000" y1="252.0" x2="800" y2="452.0" stroke="#43516d" stroke-width="4" marker-end="url(#arrow-screen)"/>
<text x="900.0" y="338.0" fill="currentColor" font-family="Helvetica, Arial, sans-serif" font-size="20" font-weight="500" text-anchor="middle">approve or return</text>
<rect x="70" y="220" width="190" height="64" rx="18" ry="18" fill="#edf4ff" stroke="#5f7db4" stroke-width="3"/>
<text x="165.0" y="259.0" fill="currentColor" font-family="Helvetica, Arial, sans-serif" font-size="22" font-weight="600" text-anchor="middle">Review Plan</text>
<rect x="420" y="110" width="250" height="64" rx="18" ry="18" fill="#dde8ff" stroke="#2f5cb4" stroke-width="3"/>
<text x="545.0" y="149.0" fill="currentColor" font-family="Helvetica, Arial, sans-serif" font-size="22" font-weight="600" text-anchor="middle">Policy-Evaluated Plan</text>
<rect x="420" y="320" width="220" height="64" rx="18" ry="18" fill="#edf8f1" stroke="#4e8a64" stroke-width="3"/>
<text x="530.0" y="359.0" fill="currentColor" font-family="Helvetica, Arial, sans-serif" font-size="22" font-weight="600" text-anchor="middle">Evidence Bundle</text>
<rect x="800" y="220" width="200" height="64" rx="18" ry="18" fill="#dde8ff" stroke="#2f5cb4" stroke-width="3"/>
<text x="900.0" y="259.0" fill="currentColor" font-family="Helvetica, Arial, sans-serif" font-size="22" font-weight="600" text-anchor="middle">Decision Packet</text>
<rect x="800" y="420" width="210" height="64" rx="18" ry="18" fill="#dde8ff" stroke="#2f5cb4" stroke-width="3"/>
<text x="905.0" y="459.0" fill="currentColor" font-family="Helvetica, Arial, sans-serif" font-size="22" font-weight="600" text-anchor="middle">Approved Change</text>
</g></svg>