<svg xmlns="http://www.w3.org/2000/svg" width="1380" height="520" viewBox="0 0 1380 520">
<rect width="100%" height="100%" fill="#ffffff"/>
<defs>
<marker id="arrow-print" markerWidth="12" markerHeight="12" refX="10" refY="6" orient="auto">
<path d="M0,0 L12,6 L0,12 z" fill="#333333"/>
</marker>
</defs>
<g style="color:#111111">
<line x1="250" y1="242.0" x2="330" y2="242.0" stroke="#333333" stroke-width="4" marker-end="url(#arrow-print)"/>
<text x="290.0" y="228.0" fill="currentColor" font-family="Helvetica, Arial, sans-serif" font-size="20" font-weight="500" text-anchor="middle">draft review plan</text>
<line x1="510" y1="242.0" x2="600" y2="242.0" stroke="#333333" stroke-width="4" marker-end="url(#arrow-print)"/>
<text x="555.0" y="228.0" fill="currentColor" font-family="Helvetica, Arial, sans-serif" font-size="20" font-weight="500" text-anchor="middle">synchronize for review</text>
<line x1="810" y1="242.0" x2="1140" y2="142.0" stroke="#333333" stroke-width="4" marker-end="url(#arrow-print)"/>
<text x="975.0" y="178.0" fill="currentColor" font-family="Helvetica, Arial, sans-serif" font-size="20" font-weight="500" text-anchor="middle">approve or return</text>
<line x1="810" y1="242.0" x2="1140" y2="242.0" stroke="#333333" stroke-width="4" marker-end="url(#arrow-print)"/>
<text x="975.0" y="228.0" fill="currentColor" font-family="Helvetica, Arial, sans-serif" font-size="20" font-weight="500" text-anchor="middle">emit decision evidence</text>
<line x1="1140" y1="142.0" x2="1330" y2="342.0" stroke="#333333" stroke-width="4" marker-end="url(#arrow-print)"/>
<text x="1235.0" y="228.0" fill="currentColor" font-family="Helvetica, Arial, sans-serif" font-size="20" font-weight="500" text-anchor="middle">dispatch and observe</text>
<line x1="1330" y1="342.0" x2="1140" y2="442.0" stroke="#333333" stroke-width="4" marker-end="url(#arrow-print)"/>
<text x="1235.0" y="378.0" fill="currentColor" font-family="Helvetica, Arial, sans-serif" font-size="20" font-weight="500" text-anchor="middle">assemble acceptance claim</text>
<rect x="60" y="210" width="190" height="64" rx="18" ry="18" fill="#f0f0f0" stroke="#3f3f3f" stroke-width="3"/>
<text x="155.0" y="249.0" fill="currentColor" font-family="Helvetica, Arial, sans-serif" font-size="22" font-weight="600" text-anchor="middle">Change Request</text>
<rect x="330" y="210" width="180" height="64" rx="18" ry="18" fill="#f0f0f0" stroke="#3f3f3f" stroke-width="3"/>
<text x="420.0" y="249.0" fill="currentColor" font-family="Helvetica, Arial, sans-serif" font-size="22" font-weight="600" text-anchor="middle">Review Plan</text>
<rect x="600" y="210" width="210" height="64" rx="18" ry="18" fill="#d9d9d9" stroke="#111111" stroke-width="3"/>
<text x="705.0" y="249.0" fill="currentColor" font-family="Helvetica, Arial, sans-serif" font-size="22" font-weight="600" text-anchor="middle">Decision Packet</text>
<rect x="1140" y="110" width="210" height="64" rx="18" ry="18" fill="#d9d9d9" stroke="#111111" stroke-width="3"/>
<text x="1245.0" y="149.0" fill="currentColor" font-family="Helvetica, Arial, sans-serif" font-size="22" font-weight="600" text-anchor="middle">Approved Change</text>
<rect x="1140" y="210" width="220" height="64" rx="18" ry="18" fill="#fafafa" stroke="#5a5a5a" stroke-width="3"/>
<text x="1250.0" y="249.0" fill="currentColor" font-family="Helvetica, Arial, sans-serif" font-size="22" font-weight="600" text-anchor="middle">Approval Decision Record</text>
<rect x="1140" y="310" width="190" height="64" rx="18" ry="18" fill="#fafafa" stroke="#5a5a5a" stroke-width="3"/>
<text x="1235.0" y="349.0" fill="currentColor" font-family="Helvetica, Arial, sans-serif" font-size="22" font-weight="600" text-anchor="middle">Execution Trace</text>
<rect x="1140" y="410" width="210" height="64" rx="18" ry="18" fill="#fafafa" stroke="#5a5a5a" stroke-width="3"/>
<text x="1245.0" y="449.0" fill="currentColor" font-family="Helvetica, Arial, sans-serif" font-size="22" font-weight="600" text-anchor="middle">Acceptance Evidence</text>
</g></svg>