<svg xmlns="http://www.w3.org/2000/svg" width="1080" height="520" viewBox="0 0 1080 520">
<rect width="100%" height="100%" fill="#ffffff"/>
<defs>
<marker id="arrow-print" markerWidth="12" markerHeight="12" refX="10" refY="6" orient="auto">
<path d="M0,0 L12,6 L0,12 z" fill="#333333"/>
</marker>
</defs>
<g style="color:#111111">
<line x1="290" y1="132.0" x2="770" y2="132.0" stroke="#333333" stroke-width="4" marker-end="url(#arrow-print)"/>
<text x="530.0" y="118.0" fill="currentColor" font-family="Helvetica, Arial, sans-serif" font-size="20" font-weight="500" text-anchor="middle">human approval</text>
<line x1="290" y1="132.0" x2="100" y2="332.0" stroke="#333333" stroke-width="4" marker-end="url(#arrow-print)"/>
<text x="195.0" y="218.0" fill="currentColor" font-family="Helvetica, Arial, sans-serif" font-size="20" font-weight="500" text-anchor="middle">package for review</text>
<line x1="310" y1="332.0" x2="770" y2="332.0" stroke="#333333" stroke-width="4" marker-end="url(#arrow-print)"/>
<text x="540.0" y="318.0" fill="currentColor" font-family="Helvetica, Arial, sans-serif" font-size="20" font-weight="500" text-anchor="middle">approve or return</text>
<line x1="980" y1="132.0" x2="770" y2="332.0" stroke="#333333" stroke-width="4" marker-end="url(#arrow-print)"/>
<text x="875.0" y="218.0" fill="currentColor" font-family="Helvetica, Arial, sans-serif" font-size="20" font-weight="500" text-anchor="middle">project review outcome</text>
<rect x="100" y="100" width="190" height="64" rx="18" ry="18" fill="#f0f0f0" stroke="#3f3f3f" stroke-width="3"/>
<text x="195.0" y="139.0" fill="currentColor" font-family="Helvetica, Arial, sans-serif" font-size="22" font-weight="600" text-anchor="middle">Review Plan</text>
<rect x="770" y="100" width="210" height="64" rx="18" ry="18" fill="#d9d9d9" stroke="#111111" stroke-width="3"/>
<text x="875.0" y="139.0" fill="currentColor" font-family="Helvetica, Arial, sans-serif" font-size="22" font-weight="600" text-anchor="middle">Approved Change</text>
<rect x="100" y="300" width="210" height="64" rx="18" ry="18" fill="#d9d9d9" stroke="#111111" stroke-width="3"/>
<text x="205.0" y="339.0" fill="currentColor" font-family="Helvetica, Arial, sans-serif" font-size="22" font-weight="600" text-anchor="middle">Decision Packet</text>
<rect x="770" y="300" width="210" height="64" rx="18" ry="18" fill="#d9d9d9" stroke="#111111" stroke-width="3"/>
<text x="875.0" y="339.0" fill="currentColor" font-family="Helvetica, Arial, sans-serif" font-size="22" font-weight="600" text-anchor="middle">Review Outcome</text>
</g></svg>