<svg xmlns="http://www.w3.org/2000/svg" width="1080" height="520" viewBox="0 0 1080 520">
<rect width="100%" height="100%" fill="#fbfcfe"/>
<defs>
<marker id="arrow-screen" markerWidth="12" markerHeight="12" refX="10" refY="6" orient="auto">
<path d="M0,0 L12,6 L0,12 z" fill="#43516d"/>
</marker>
</defs>
<g style="color:#172033">
<line x1="350" y1="237.0" x2="700" y2="122.0" stroke="#43516d" stroke-width="4" marker-end="url(#arrow-screen)"/>
<text x="525.0" y="165.5" fill="currentColor" font-family="Helvetica, Arial, sans-serif" font-size="20" font-weight="500" text-anchor="middle">scope of</text>
<line x1="350" y1="237.0" x2="700" y2="247.0" stroke="#43516d" stroke-width="4" marker-end="url(#arrow-screen)"/>
<text x="525.0" y="228.0" fill="currentColor" font-family="Helvetica, Arial, sans-serif" font-size="20" font-weight="500" text-anchor="middle">policy status of</text>
<line x1="350" y1="237.0" x2="700" y2="372.0" stroke="#43516d" stroke-width="4" marker-end="url(#arrow-screen)"/>
<text x="525.0" y="290.5" fill="currentColor" font-family="Helvetica, Arial, sans-serif" font-size="20" font-weight="500" text-anchor="middle">evidence links of</text>
<rect x="90" y="205" width="260" height="64" rx="18" ry="18" fill="#edf4ff" stroke="#5f7db4" stroke-width="3"/>
<text x="220.0" y="244.0" fill="currentColor" font-family="Helvetica, Arial, sans-serif" font-size="22" font-weight="600" text-anchor="middle">Combined Review Context</text>
<rect x="700" y="90" width="210" height="64" rx="18" ry="18" fill="#edf4ff" stroke="#5f7db4" stroke-width="3"/>
<text x="805.0" y="129.0" fill="currentColor" font-family="Helvetica, Arial, sans-serif" font-size="22" font-weight="600" text-anchor="middle">Requested Scope</text>
<rect x="700" y="215" width="200" height="64" rx="18" ry="18" fill="#dde8ff" stroke="#2f5cb4" stroke-width="3"/>
<text x="800.0" y="254.0" fill="currentColor" font-family="Helvetica, Arial, sans-serif" font-size="22" font-weight="600" text-anchor="middle">Policy Result</text>
<rect x="700" y="340" width="210" height="64" rx="18" ry="18" fill="#edf8f1" stroke="#4e8a64" stroke-width="3"/>
<text x="805.0" y="379.0" fill="currentColor" font-family="Helvetica, Arial, sans-serif" font-size="22" font-weight="600" text-anchor="middle">Evidence Links</text>
</g></svg>