<svg xmlns="http://www.w3.org/2000/svg" width="1160" height="560" viewBox="0 0 1160 560">
<rect width="100%" height="100%" fill="#fbfcfe"/>
<defs>
<marker id="arrow-screen" markerWidth="12" markerHeight="12" refX="10" refY="6" orient="auto">
<path d="M0,0 L12,6 L0,12 z" fill="#43516d"/>
</marker>
</defs>
<g style="color:#172033">
<rect x="430" y="160" width="250" height="180" rx="20" ry="20" fill="#f6f8fc" fill-opacity="0.55" stroke="#75829b" stroke-width="3" stroke-dasharray="12 8"/>
<text x="555.0" y="148" fill="currentColor" font-family="Helvetica, Arial, sans-serif" font-size="24" font-weight="600" text-anchor="middle">Shared boundary</text>
<line x1="270" y1="162.0" x2="455" y2="252.0" stroke="#43516d" stroke-width="4" marker-end="url(#arrow-screen)"/>
<text x="362.5" y="193.0" fill="currentColor" font-family="Helvetica, Arial, sans-serif" font-size="20" font-weight="500" text-anchor="middle">project boundary</text>
<line x1="310" y1="362.0" x2="455" y2="252.0" stroke="#43516d" stroke-width="4" marker-end="url(#arrow-screen)"/>
<text x="382.5" y="293.0" fill="currentColor" font-family="Helvetica, Arial, sans-serif" font-size="20" font-weight="500" text-anchor="middle">project boundary</text>
<line x1="655" y1="252.0" x2="840" y2="252.0" stroke="#43516d" stroke-width="4" marker-end="url(#arrow-screen)"/>
<text x="747.5" y="238.0" fill="currentColor" font-family="Helvetica, Arial, sans-serif" font-size="20" font-weight="500" text-anchor="middle">permit constrained join</text>
<rect x="80" y="130" width="190" height="64" rx="18" ry="18" fill="#edf4ff" stroke="#5f7db4" stroke-width="3"/>
<text x="175.0" y="169.0" fill="currentColor" font-family="Helvetica, Arial, sans-serif" font-size="22" font-weight="600" text-anchor="middle">Reviewer View</text>
<rect x="80" y="330" width="230" height="64" rx="18" ry="18" fill="#dde8ff" stroke="#2f5cb4" stroke-width="3"/>
<text x="195.0" y="369.0" fill="currentColor" font-family="Helvetica, Arial, sans-serif" font-size="22" font-weight="600" text-anchor="middle">Policy-Evaluated Plan</text>
<rect x="455" y="220" width="200" height="64" rx="18" ry="18" fill="#edf4ff" stroke="#5f7db4" stroke-width="3"/>
<text x="555.0" y="259.0" fill="currentColor" font-family="Helvetica, Arial, sans-serif" font-size="22" font-weight="600" text-anchor="middle">Shared Boundary</text>
<rect x="840" y="220" width="210" height="64" rx="18" ry="18" fill="#dde8ff" stroke="#2f5cb4" stroke-width="3"/>
<text x="945.0" y="259.0" fill="currentColor" font-family="Helvetica, Arial, sans-serif" font-size="22" font-weight="600" text-anchor="middle">Decision Packet</text>
</g></svg>