<svg xmlns="http://www.w3.org/2000/svg" width="1320" height="560" viewBox="0 0 1320 560">
<rect width="100%" height="100%" fill="#fbfcfe"/>
<defs>
<marker id="arrow-screen" markerWidth="12" markerHeight="12" refX="10" refY="6" orient="auto">
<path d="M0,0 L12,6 L0,12 z" fill="#43516d"/>
</marker>
</defs>
<g style="color:#172033">
<rect x="40" y="90" width="560" height="370" rx="20" ry="20" fill="#f6f8fc" fill-opacity="0.55" stroke="#75829b" stroke-width="3" stroke-dasharray="12 8"/>
<text x="320.0" y="78" fill="currentColor" font-family="Helvetica, Arial, sans-serif" font-size="24" font-weight="600" text-anchor="middle">Lawful fan-in</text>
<rect x="720" y="90" width="560" height="370" rx="20" ry="20" fill="#f6f8fc" fill-opacity="0.55" stroke="#75829b" stroke-width="3" stroke-dasharray="12 8"/>
<text x="1000.0" y="78" fill="currentColor" font-family="Helvetica, Arial, sans-serif" font-size="24" font-weight="600" text-anchor="middle">Broken fan-in</text>
<line x1="270" y1="272.0" x2="320" y2="162.0" stroke="#43516d" stroke-width="4" marker-end="url(#arrow-screen)"/>
<text x="295.0" y="203.0" fill="currentColor" font-family="Helvetica, Arial, sans-serif" font-size="20" font-weight="500" text-anchor="middle">same identity + revision</text>
<line x1="270" y1="272.0" x2="320" y2="362.0" stroke="#43516d" stroke-width="4" marker-end="url(#arrow-screen)"/>
<text x="295.0" y="303.0" fill="currentColor" font-family="Helvetica, Arial, sans-serif" font-size="20" font-weight="500" text-anchor="middle">same identity + revision</text>
<line x1="500" y1="162.0" x2="360" y2="272.0" stroke="#43516d" stroke-width="4" marker-end="url(#arrow-screen)"/>
<text x="430.0" y="203.0" fill="currentColor" font-family="Helvetica, Arial, sans-serif" font-size="20" font-weight="500" text-anchor="middle">preserve policy result</text>
<line x1="520" y1="362.0" x2="360" y2="272.0" stroke="#43516d" stroke-width="4" marker-end="url(#arrow-screen)"/>
<text x="440.0" y="303.0" fill="currentColor" font-family="Helvetica, Arial, sans-serif" font-size="20" font-weight="500" text-anchor="middle">preserve evidence</text>
<line x1="950" y1="272.0" x2="1000" y2="162.0" stroke="#43516d" stroke-width="4" marker-end="url(#arrow-screen)"/>
<text x="975.0" y="203.0" fill="currentColor" font-family="Helvetica, Arial, sans-serif" font-size="20" font-weight="500" text-anchor="middle">original plan</text>
<line x1="950" y1="272.0" x2="1000" y2="362.0" stroke="#43516d" stroke-width="4" marker-end="url(#arrow-screen)"/>
<text x="975.0" y="303.0" fill="currentColor" font-family="Helvetica, Arial, sans-serif" font-size="20" font-weight="500" text-anchor="middle">original plan</text>
<line x1="1200" y1="462.0" x2="1000" y2="362.0" stroke="#43516d" stroke-width="4" marker-end="url(#arrow-screen)"/>
<text x="1100.0" y="398.0" fill="currentColor" font-family="Helvetica, Arial, sans-serif" font-size="20" font-weight="500" text-anchor="middle">widen scope</text>
<line x1="1180" y1="162.0" x2="1060" y2="272.0" stroke="#43516d" stroke-width="4" marker-end="url(#arrow-screen)"/>
<text x="1120.0" y="203.0" fill="currentColor" font-family="Helvetica, Arial, sans-serif" font-size="20" font-weight="500" text-anchor="middle">policy result</text>
<line x1="1200" y1="362.0" x2="1060" y2="272.0" stroke="#43516d" stroke-width="4" marker-end="url(#arrow-screen)"/>
<text x="1130.0" y="303.0" fill="currentColor" font-family="Helvetica, Arial, sans-serif" font-size="20" font-weight="500" text-anchor="middle">summary only</text>
<rect x="80" y="240" width="190" height="64" rx="18" ry="18" fill="#edf4ff" stroke="#5f7db4" stroke-width="3"/>
<text x="175.0" y="279.0" fill="currentColor" font-family="Helvetica, Arial, sans-serif" font-size="22" font-weight="600" text-anchor="middle">Review Plan</text>
<rect x="320" y="130" width="180" height="64" rx="18" ry="18" fill="#dde8ff" stroke="#2f5cb4" stroke-width="3"/>
<text x="410.0" y="169.0" fill="currentColor" font-family="Helvetica, Arial, sans-serif" font-size="22" font-weight="600" text-anchor="middle">Policy Branch</text>
<rect x="320" y="330" width="200" height="64" rx="18" ry="18" fill="#edf8f1" stroke="#4e8a64" stroke-width="3"/>
<text x="420.0" y="369.0" fill="currentColor" font-family="Helvetica, Arial, sans-serif" font-size="22" font-weight="600" text-anchor="middle">Evidence Branch</text>
<rect x="360" y="240" width="200" height="64" rx="18" ry="18" fill="#dde8ff" stroke="#2f5cb4" stroke-width="3"/>
<text x="460.0" y="279.0" fill="currentColor" font-family="Helvetica, Arial, sans-serif" font-size="22" font-weight="600" text-anchor="middle">Synchronized Packet</text>
<rect x="760" y="240" width="190" height="64" rx="18" ry="18" fill="#edf4ff" stroke="#5f7db4" stroke-width="3"/>
<text x="855.0" y="279.0" fill="currentColor" font-family="Helvetica, Arial, sans-serif" font-size="22" font-weight="600" text-anchor="middle">Review Plan</text>
<rect x="1000" y="130" width="180" height="64" rx="18" ry="18" fill="#dde8ff" stroke="#2f5cb4" stroke-width="3"/>
<text x="1090.0" y="169.0" fill="currentColor" font-family="Helvetica, Arial, sans-serif" font-size="22" font-weight="600" text-anchor="middle">Policy Branch</text>
<rect x="1000" y="330" width="200" height="64" rx="18" ry="18" fill="#edf8f1" stroke="#4e8a64" stroke-width="3"/>
<text x="1100.0" y="369.0" fill="currentColor" font-family="Helvetica, Arial, sans-serif" font-size="22" font-weight="600" text-anchor="middle">Evidence Branch</text>
<rect x="980" y="430" width="220" height="64" rx="18" ry="18" fill="#edf4ff" stroke="#5f7db4" stroke-width="3"/>
<text x="1090.0" y="469.0" fill="currentColor" font-family="Helvetica, Arial, sans-serif" font-size="22" font-weight="600" text-anchor="middle">Mutable Context</text>
<rect x="1060" y="240" width="200" height="64" rx="18" ry="18" fill="#dde8ff" stroke="#2f5cb4" stroke-width="3"/>
<text x="1160.0" y="279.0" fill="currentColor" font-family="Helvetica, Arial, sans-serif" font-size="22" font-weight="600" text-anchor="middle">Unlabeled Summary</text>
</g></svg>