<svg xmlns="http://www.w3.org/2000/svg" width="1160" height="560" viewBox="0 0 1160 560">
<rect width="100%" height="100%" fill="#ffffff"/>
<defs>
<marker id="arrow-print" markerWidth="12" markerHeight="12" refX="10" refY="6" orient="auto">
<path d="M0,0 L12,6 L0,12 z" fill="#333333"/>
</marker>
</defs>
<g style="color:#111111">
<rect x="350" y="110" width="680" height="300" rx="20" ry="20" fill="#ffffff" fill-opacity="0.55" stroke="#6b6b6b" stroke-width="3" stroke-dasharray="12 8"/>
<text x="690.0" y="98" fill="currentColor" font-family="Helvetica, Arial, sans-serif" font-size="24" font-weight="600" text-anchor="middle">Synchronization boundary</text>
<line x1="250" y1="142.0" x2="760" y2="267.0" stroke="#333333" stroke-width="4" marker-end="url(#arrow-print)"/>
<text x="505.0" y="190.5" fill="currentColor" font-family="Helvetica, Arial, sans-serif" font-size="20" font-weight="500" text-anchor="middle">same change identity</text>
<line x1="280" y1="272.0" x2="760" y2="267.0" stroke="#333333" stroke-width="4" marker-end="url(#arrow-print)"/>
<text x="520.0" y="255.5" fill="currentColor" font-family="Helvetica, Arial, sans-serif" font-size="20" font-weight="500" text-anchor="middle">same route semantics</text>
<line x1="250" y1="402.0" x2="760" y2="267.0" stroke="#333333" stroke-width="4" marker-end="url(#arrow-print)"/>
<text x="505.0" y="320.5" fill="currentColor" font-family="Helvetica, Arial, sans-serif" font-size="20" font-weight="500" text-anchor="middle">same evidence set</text>
<rect x="70" y="110" width="180" height="64" rx="18" ry="18" fill="#f0f0f0" stroke="#3f3f3f" stroke-width="3"/>
<text x="160.0" y="149.0" fill="currentColor" font-family="Helvetica, Arial, sans-serif" font-size="22" font-weight="600" text-anchor="middle">Plan Revision</text>
<rect x="70" y="240" width="210" height="64" rx="18" ry="18" fill="#d9d9d9" stroke="#111111" stroke-width="3"/>
<text x="175.0" y="279.0" fill="currentColor" font-family="Helvetica, Arial, sans-serif" font-size="22" font-weight="600" text-anchor="middle">Policy Classification</text>
<rect x="70" y="370" width="180" height="64" rx="18" ry="18" fill="#fafafa" stroke="#5a5a5a" stroke-width="3"/>
<text x="160.0" y="409.0" fill="currentColor" font-family="Helvetica, Arial, sans-serif" font-size="22" font-weight="600" text-anchor="middle">Evidence Links</text>
<rect x="760" y="235" width="220" height="64" rx="18" ry="18" fill="#d9d9d9" stroke="#111111" stroke-width="3"/>
<text x="870.0" y="274.0" fill="currentColor" font-family="Helvetica, Arial, sans-serif" font-size="22" font-weight="600" text-anchor="middle">Decision Packet</text>
</g></svg>