<svg xmlns="http://www.w3.org/2000/svg" width="1080" height="520" viewBox="0 0 1080 520">
<rect width="100%" height="100%" fill="#ffffff"/>
<defs>
<marker id="arrow-print" markerWidth="12" markerHeight="12" refX="10" refY="6" orient="auto">
<path d="M0,0 L12,6 L0,12 z" fill="#333333"/>
</marker>
</defs>
<g style="color:#111111">
<line x1="320" y1="212.0" x2="430" y2="122.0" stroke="#333333" stroke-width="4" marker-end="url(#arrow-print)"/>
<text x="375.0" y="153.0" fill="currentColor" font-family="Helvetica, Arial, sans-serif" font-size="20" font-weight="500" text-anchor="middle">enter standard route</text>
<line x1="320" y1="212.0" x2="430" y2="312.0" stroke="#333333" stroke-width="4" marker-end="url(#arrow-print)"/>
<text x="375.0" y="248.0" fill="currentColor" font-family="Helvetica, Arial, sans-serif" font-size="20" font-weight="500" text-anchor="middle">enter escalated route</text>
<line x1="670" y1="122.0" x2="800" y2="212.0" stroke="#333333" stroke-width="4" marker-end="url(#arrow-print)"/>
<text x="735.0" y="153.0" fill="currentColor" font-family="Helvetica, Arial, sans-serif" font-size="20" font-weight="500" text-anchor="middle">approve with standard controls</text>
<line x1="670" y1="312.0" x2="800" y2="212.0" stroke="#333333" stroke-width="4" marker-end="url(#arrow-print)"/>
<text x="735.0" y="248.0" fill="currentColor" font-family="Helvetica, Arial, sans-serif" font-size="20" font-weight="500" text-anchor="middle">approve with escalated controls</text>
<rect x="70" y="180" width="250" height="64" rx="18" ry="18" fill="#f0f0f0" stroke="#3f3f3f" stroke-width="3"/>
<text x="195.0" y="219.0" fill="currentColor" font-family="Helvetica, Arial, sans-serif" font-size="22" font-weight="600" text-anchor="middle">Combined Review Context</text>
<rect x="430" y="90" width="240" height="64" rx="18" ry="18" fill="#f0f0f0" stroke="#3f3f3f" stroke-width="3"/>
<text x="550.0" y="129.0" fill="currentColor" font-family="Helvetica, Arial, sans-serif" font-size="22" font-weight="600" text-anchor="middle">Standard Review Route</text>
<rect x="430" y="280" width="240" height="64" rx="18" ry="18" fill="#f0f0f0" stroke="#3f3f3f" stroke-width="3"/>
<text x="550.0" y="319.0" fill="currentColor" font-family="Helvetica, Arial, sans-serif" font-size="22" font-weight="600" text-anchor="middle">Escalated Review Route</text>
<rect x="800" y="180" width="210" height="64" rx="18" ry="18" fill="#d9d9d9" stroke="#111111" stroke-width="3"/>
<text x="905.0" y="219.0" fill="currentColor" font-family="Helvetica, Arial, sans-serif" font-size="22" font-weight="600" text-anchor="middle">Approved Change</text>
</g></svg>